<svg width="5434" height="5434" viewBox="0 0 5434 5434" fill="none" xmlns="http://www.w3.org/2000/svg">
<path d="M2715.82 5399.42C4197.69 5399.42 5399 4198.11 5399 2716.24C5399 1234.43 4197.69 33.0617 2715.82 33.0617C1233.95 33.0617 32.6357 1234.43 32.6357 2716.24C32.6357 4198.11 1233.95 5399.42 2715.82 5399.42Z" fill="#335DEB" stroke="#335DEB" stroke-width="1.05544"/>
<path d="M1311.26 3240.81L1403.91 2095.66C1395.58 1646.85 1246.49 1604.26 1246.49 1604.26L1829.75 1252.81C2383.5 1572.01 2711.57 1153.57 2711.57 1153.57C3202.03 1623.21 3617.39 1261.81 3617.39 1261.81L4225.25 1608.84C4030 1820.15 4060.97 1974.96 4060.97 1974.96L4111.09 3225.78L2727.98 2208.04L1311.26 3240.81Z" fill="#E7D468" stroke="#E7D468" stroke-width="1.58463"/>
<path d="M2725.53 4580.43C2725.53 4580.43 2878.45 4361.46 3362.2 4246.38C3362.2 4246.38 3695.86 4235.1 3989.99 3777.07L2719.14 2877.37L1470.47 3763.43C1782.63 4223.79 2117.68 4233.34 2117.68 4233.34C2630.73 4408.96 2725.53 4580.43 2725.53 4580.43Z" fill="#E7D468" stroke="#E7D468" stroke-width="1.05497"/>
<path d="M2228.39 3873.02C2278.78 3873.02 2319.63 3830.56 2319.63 3778.09C2319.63 3725.68 2278.78 3683.15 2228.39 3683.15C2178 3683.15 2137.15 3725.68 2137.15 3778.09C2137.15 3830.56 2178 3873.02 2228.39 3873.02Z" fill="#3698D4" stroke="#3698D4" stroke-width="1.05544"/>
<path d="M2702.27 1358.04L2660.08 1648.17L2560.25 1559.34L1933.6 1691.23C1933.6 1691.23 1816.67 1860.49 1703.99 1684.93L1629.1 1700.76C1629.1 1700.76 1637.69 1827.1 1778.72 1900.12L1782.73 1900.21C1773.82 1909.23 1768.32 1921.74 1768.32 1935.55C1768.32 1947.32 1772.3 1958.14 1778.98 1966.65L1512.79 2437.59C1512.79 2437.59 1763.2 2874.15 2107.21 2460.15L1855.95 1965.86C1862.28 1957.47 1866.01 1946.95 1866.01 1935.53C1866.01 1922.56 1861.13 1910.74 1853.15 1901.88L1862.17 1902.09C1862.17 1902.09 1972.24 1885.49 2001 1777.79L2638.87 1775.33L2639.73 1775.16L2630.41 1994.92C2652.79 2072.39 2715.32 2064.56 2715.32 2064.56C2790.9 2072.41 2798.74 1994.37 2798.75 1994.24L2772.69 1777.79H3408.82C3436.77 1885.69 3548.3 1910.75 3548.3 1910.75L3560.21 1910.58C3551.28 1919.6 3545.76 1932.13 3545.76 1945.95C3545.76 1959.2 3550.85 1971.24 3559.13 1980.17L3304.16 2472.13C3644.8 2888.81 3898.68 2454.27 3898.68 2454.27L3633.44 1976.12C3639.71 1967.74 3643.44 1957.3 3643.44 1945.96C3643.44 1931.6 3637.47 1918.64 3627.91 1909.55L3631.75 1909.52C3773.38 1837.56 3782.92 1711.37 3782.92 1711.37L3708.2 1694.85C3594.12 1869.53 3478.51 1699.33 3478.51 1699.33L2853.07 1562.48L2743.67 1647.95L2704.92 1365.88L2702.27 1358.04ZM1840.68 1979.21L2075.64 2440.87L1823.68 2442.59L1824.81 1984.74C1830.49 1983.83 1835.83 1981.93 1840.68 1979.21ZM1793.87 1979.33C1795.79 1980.39 1797.81 1981.3 1799.87 1982.09L1800.21 2440.09H1534.28L1793.87 1979.33ZM3616.82 1990.29L3874.25 2451.83L3611.21 2451.8L3609.62 1993.38C3612.12 1992.55 3614.51 1991.52 3616.82 1990.32L3616.82 1990.29ZM3580.2 1993.56C3582.52 1994.3 3584.94 1994.88 3587.4 1995.25L3585.8 2453.1H3335.88L3580.2 1993.56ZM3434.94 3484.24C3301.37 3484.58 3266.22 3580.72 3260.04 3717.51L3258.91 3716.26C3258.91 3716.26 3210.74 3724.11 3200.33 3684.94C3200.33 3684.94 3189.85 3718.85 3145.58 3717.51L1755.1 3718.85C1669.84 3787.92 1755.92 3842.71 1755.92 3842.71H1823.73V4038.23H1980.13V3881.8H1917.57L1918.86 3918.3H1883.66V3845.3H2104.16L2103.73 3918.3H2071.37L2070.08 3881.58L2007.48 3881.33L2006.75 4037.76L2163.96 4039.57V3846.6L3157.28 3845.3C3191.21 3846.58 3204.17 3885.77 3204.17 3885.77C3213.31 3840.08 3260.26 3845.3 3260.26 3845.3C3270.67 3975.85 3315.1 4076.56 3436.24 4077.37C3582.23 4078.24 3605.62 3933.65 3605.62 3769.71C3605.62 3605.77 3577.04 3483.77 3434.94 3484.24ZM3435.58 3532.56C3485.76 3531.54 3528.21 3584.79 3531.53 3654.31C3533.82 3703.82 3515.74 3748.7 3487.18 3773.29L3482.22 3776.4C3510.5 3796.42 3530.79 3835.51 3533.47 3882.27C3537.44 3954.03 3498.4 4016.65 3446.19 4022.22C3393.99 4027.73 3348.43 3974.11 3344.33 3902.42C3341.58 3852.9 3359.34 3807.76 3387.69 3782.7L3392.53 3778C3364.44 3757.5 3344.44 3718.05 3342.22 3671.22C3338.86 3599.46 3378.5 3537.45 3430.71 3532.82C3432.34 3532.67 3433.97 3532.59 3435.58 3532.56Z" fill="#3698D4"/>
<path d="M1824.9 1947.96L1823.65 2442.37L2075.6 2440.64L1824.9 1947.96ZM1799.83 1968.5L1534.25 2439.87H1800.18L1799.83 1968.5ZM3609.53 1977.08L3611.17 2451.55L3874.21 2451.58L3609.53 1977.08ZM3587.4 1979.67L3335.84 2452.9H3585.76L3587.4 1979.67Z" stroke="#3698D4" stroke-width="1.05544"/>
<path d="M1817.83 1898.78C1799.49 1898.78 1784.65 1914.83 1784.65 1934.71C1784.65 1954.6 1799.49 1970.65 1817.83 1970.65C1836.17 1970.65 1851.01 1954.6 1851.01 1934.71C1851.01 1914.83 1836.17 1898.78 1817.83 1898.78ZM3595.25 1909.17C3576.91 1909.17 3562.07 1925.29 3562.07 1945.11C3562.07 1965 3576.9 1981.05 3595.25 1981.05C3613.59 1981.05 3628.43 1965 3628.43 1945.11C3628.43 1925.29 3613.59 1909.17 3595.25 1909.17Z" fill="#E7D468"/>
<path d="M2719.06 5327.62C4155.39 5327.62 5319.74 4163.21 5319.74 2726.93C5319.74 1290.68 4155.39 126.248 2719.06 126.248C1282.81 126.248 118.371 1290.66 118.371 2726.93C118.371 4163.18 1282.78 5327.62 2719.06 5327.62ZM2719.06 4700.56C3809.04 4700.56 4692.68 3816.92 4692.68 2726.93C4692.68 1636.95 3809.04 753.307 2719.06 753.307C1629.07 753.307 745.429 1636.95 745.429 2726.93C745.429 3816.92 1629.07 4700.56 2719.06 4700.56Z" stroke="white" stroke-width="1.58463"/>
<path d="M1462.05 3762.49C1370.07 3634.09 1295.76 3442.14 1295.76 3269.53L2727.92 2231.35L4125.29 3260.72C4125.29 3433.39 4091.9 3648.66 3999.85 3777.04L2719.34 2854.02L1462.05 3762.49Z" fill="#3698D4" stroke="#3698D4" stroke-width="0.79082"/>
<path d="M2556.48 278.042L2288.83 310.227L2294.65 387.668L2304.01 386.545C2303.21 371.63 2305.3 359.31 2310.14 349.701C2315.04 340.631 2321.73 333.777 2329.73 329.813C2335.84 326.588 2346.12 324.403 2361.44 322.522L2400.95 317.733L2430.98 567.655C2433.2 585.93 2432.68 597.982 2429.86 603.896C2424.95 612.966 2415.53 618.116 2401.69 619.729L2389.87 621.24L2390.94 630.084L2530.21 613.302L2529.17 604.414L2517.78 605.837C2504.95 607.383 2495.14 605.027 2488.36 598.848C2483.32 594.413 2479.89 582.338 2477.4 562.048L2447.37 312.167L2493.28 306.644C2507.12 304.966 2518.21 305.634 2527.14 309.06C2535.61 312.553 2543.33 318.68 2549.45 327.481C2553.08 333.058 2556.69 342.143 2559.85 355.782L2569.21 354.616L2556.48 278.042ZM2907.84 279.25C2877.5 281.927 2849.65 292.897 2824.71 311.994C2786.55 342.026 2764.84 383.032 2760.21 435.035C2755.57 486.099 2767.17 529.093 2794.98 564.031C2822.8 599.035 2859.03 618.261 2904.65 622.361C2949.2 626.392 2988.36 613.427 3023.03 583.057C3057.16 553.157 3076.8 512.982 3081.23 463.465C3085.6 414.89 3073.88 372.883 3045.59 337.876C3017.31 302.873 2981.59 283.205 2938.99 279.376C2928.34 278.419 2917.95 278.345 2907.84 279.25ZM2932.99 296.291C2964.17 299.112 2987.5 312.213 3003.36 335.594C3023.18 365.358 3030.27 408.408 3025.23 464.376C3020.53 516.379 3007.16 553.667 2984.72 575.638C2962.75 598.079 2936.43 607.688 2905.73 604.932C2876.5 602.311 2854.67 589.351 2838.82 565.499C2818.66 534.66 2810.94 492.529 2815.78 439.048C2820.48 386.509 2834.97 347.868 2859.7 322.607C2879.52 302.45 2903.77 293.67 2932.99 296.291ZM3172.26 315.921L3170.1 324.636L3181.75 327.484C3189.48 329.43 3196.25 333.105 3202.03 338.614C3206.13 342.713 3208.18 346.826 3209.19 351.126C3209.93 356.433 3208.19 367.774 3204.23 383.699L3153.36 590.999C3148.59 610.281 3143.69 621.876 3138.65 625.772C3130.93 632.088 3120.39 633.57 3107.29 630.345L3095.73 627.542L3093.57 636.214L3230.76 669.951L3232.92 661.193L3221.32 658.389C3214.06 656.575 3207.25 652.854 3201.47 647.344C3196.84 643.112 3194.84 639.004 3193.84 634.704C3193.1 629.396 3194.86 618.055 3198.75 602.13L3223.6 501.134L3281.5 515.414C3292.18 518.035 3299.99 521.516 3304.62 525.682C3309.73 529.982 3312.94 535.429 3314.42 541.946C3315.9 548.464 3315.66 558.072 3312.56 570.636L3321.23 572.792L3347.9 464.118L3339.23 462.003C3332.91 479.405 3325.73 489.887 3318 494.188C3310.34 498.421 3299.92 498.928 3286.42 495.569L3228.43 481.332L3259.28 355.744L3329.82 373.087C3346.21 377.118 3358.45 381.695 3365.37 386.936C3372.35 391.773 3377.76 398.675 3381.46 406.738C3385.49 415.405 3387.6 427.701 3387.8 443.623L3396 445.738L3409.89 374.293L3172.26 315.921ZM2212.57 322.392L2101.09 354.103L2103.6 362.688L2114.55 359.625C2127.52 355.93 2137.53 356.676 2145.18 361.784C2150.83 365.277 2156.65 376.55 2162.22 396.169L2214.47 579.394L1952.34 396.513L1867.22 420.759L1869.63 429.344C1878.7 426.723 1885.56 425.308 1890.73 425.375C1900.81 426.182 1908.36 427.137 1914.07 429.086C1919.91 431.571 1929.02 436.194 1941.25 444.66L2004.02 665.204C2009.13 682.874 2010.48 694.894 2008.59 701.141C2005.17 710.883 1996.68 717.454 1982.84 721.418L1971.84 724.524L1974.25 733.11L2085.73 701.399L2083.32 692.813L2071.8 696.006C2059.37 699.567 2049.3 698.839 2041.17 693.936C2035.53 690.375 2030.22 678.954 2024.65 659.336L1969.04 464.159L2250.41 660.195L2259 657.736L2182.81 390.34C2177.77 372.67 2176.42 360.609 2178.23 354.359C2181.66 344.617 2190.12 338.041 2203.56 334.212L2215.08 330.976L2212.57 322.392ZM3619.78 446.081L3583.97 515.022L3592.52 518.991C3599.71 505.89 3607.9 496.481 3617.11 490.905C3626.04 485.731 3635.38 483.474 3644.24 484.347C3651.16 484.819 3661.12 488.271 3675.09 494.788L3711.16 511.527L3605.2 739.838C3597.47 756.5 3590.62 766.501 3585.18 769.994C3576.18 775.167 3565.5 774.586 3552.87 768.742L3542.04 763.694L3538.2 771.805L3665.47 830.867L3669.22 822.757L3658.87 817.925C3647.11 812.482 3640.02 805.371 3637.6 796.569C3635.58 790.119 3639.01 777.986 3647.61 759.51L3753.57 531.243L3795.54 550.701C3808.18 556.546 3817.25 562.93 3823.03 570.59C3828.33 577.98 3831.76 587.259 3832.3 597.942C3832.51 604.593 3830.76 614.216 3826.26 627.453L3834.8 631.465L3864.36 559.591L3619.78 446.081ZM1788.14 456.478L1557.76 563.774L1561.51 571.928L1572.34 566.88C1584.5 561.236 1594.77 559.763 1602.5 563.256C1608.61 565.878 1615.92 576.752 1624.72 595.7L1715.32 790.015C1722.04 804.46 1725.7 814.796 1725.97 820.17C1726.98 825.747 1725.51 830.788 1721.62 835.357C1716.78 841.471 1710.82 846.436 1704.1 849.594L1693.27 854.641L1697.02 862.796L1927.41 755.414L1918.22 668.611L1909.2 672.752C1908.39 695.663 1905.17 713.617 1900.4 726.852C1896.5 737.4 1891.41 745.253 1884.82 751.098C1878.17 756.944 1866.69 763.926 1849.96 771.72L1799.49 795.232C1790.89 799.196 1785.03 800.885 1781.54 800.28C1777.71 800.428 1774.44 799.214 1772.09 796.527C1769.47 794.445 1765.22 786.504 1759.11 773.403L1713.16 674.736L1778.91 644.018C1791.54 638.172 1801.23 635.293 1809.02 635.562C1816.14 635.503 1822.07 637.609 1827.31 641.774C1831.48 644.798 1837.64 653.426 1846.64 666.797L1854.71 663.043L1806.22 558.899L1798.06 562.652C1805.18 580.255 1806.62 593.809 1802.12 604.155C1798.56 611.815 1788.53 619.845 1771.4 627.841L1705.56 658.471L1650.51 540.348L1732.57 502.122C1747.02 495.404 1757.75 491.419 1764.67 490.949C1773.8 490.546 1781.35 492.563 1787.66 496.73C1794.65 501.164 1802.83 510.505 1813.37 524.816L1821.92 520.847L1788.14 456.478ZM3933.18 595.223L3928.13 602.686L3938.1 609.33C3944.28 613.496 3949.32 619.345 3953.28 626.803C3956.04 631.64 3956.55 636.159 3955.74 640.997C3954.6 646.237 3949.31 655.903 3939.91 669.945L3820.79 847.001C3809.64 863.462 3801.04 872.663 3794.99 874.612C3785.59 877.837 3775.09 875.622 3763.93 868.098L3754.05 861.454L3749.09 868.874L3866.27 947.696L3871.23 940.319L3861.35 933.675C3855.17 929.509 3850.07 923.649 3846.51 916.461C3843.68 910.951 3843.16 906.399 3843.7 901.965C3844.84 896.725 3850.4 886.699 3859.54 873.06L3915.66 789.667L4042.37 874.959L3986.24 958.311C3975.09 974.839 3966.49 984.041 3960.44 985.922C3950.63 988.878 3940.58 986.932 3929.43 979.407L3919.55 972.764L3914.58 980.227L4031.76 1059.09L4036.72 1051.63L4027.23 1045.24C4020.64 1040.81 4015.53 1034.97 4011.57 1027.51C4009.15 1022.27 4008.61 1017.71 4009.15 1013.27C4010.3 1008.1 4015.89 998.007 4025.03 984.368L4144.14 807.354C4153.01 794.185 4160.01 785.656 4164.38 782.633C4168.68 778.938 4173.8 777.594 4179.78 778.534C4187.51 779.542 4194.72 782.082 4201.31 786.516L4210.89 792.901L4215.85 785.437L4098.67 706.615L4093.63 714.036L4103.55 720.68C4109.73 724.845 4114.79 730.705 4118.35 737.894C4121.5 743 4122.04 747.552 4121.23 752.389C4120.09 757.63 4114.81 767.253 4105.4 781.295L4052.29 860.073L3925.67 774.824L3978.65 696.002C3987.52 682.766 3994.45 674.305 3998.88 671.282C4003.59 667.855 4008.71 666.444 4014.28 667.183C4021.94 668.19 4029.24 670.697 4035.43 674.863L4045.39 681.593L4050.35 674.129L3933.18 595.223ZM1486.67 597.897L1410.22 651.738L1462.04 930.308L1216.52 787.938L1139.25 842.253L1144.38 849.587C1155.4 841.861 1164.39 837.345 1171.65 836.472C1178.23 835.465 1183.8 836.498 1188.43 838.716C1194.95 842.008 1202.49 850.059 1210.82 861.884L1334.73 1038.04C1345.28 1053.09 1350.48 1064.07 1350.82 1070.52C1350.76 1080.87 1344.92 1089.88 1333.56 1097.87L1323.81 1104.69L1328.95 1112.02L1423.73 1045.37L1418.55 1038.03L1408.8 1044.89C1398.26 1052.35 1388.55 1054.91 1379.21 1052.96C1372.69 1051.48 1363.96 1042.44 1352.2 1025.78L1225.4 845.489L1489.22 999.292L1495.78 994.719L1439.87 694.753L1566.57 875C1577.19 890.05 1582.44 900.907 1582.71 907.356C1583.11 917.434 1576.85 926.713 1565.5 934.708L1555.7 941.654L1560.88 948.945L1676.41 867.664L1671.24 860.33L1661.92 866.931C1650.9 874.658 1641.15 877.283 1632.28 874.999C1625.76 873.52 1616.57 864.764 1604.88 848.035L1480.98 671.883C1470.36 656.833 1465.11 645.957 1464.84 639.439C1464.84 629.092 1470.71 620.159 1482.53 611.828L1491.85 605.227L1486.67 597.897ZM4270.52 831.556L4264.39 838.114L4273.11 846.225C4282.99 855.362 4288.22 864.292 4287.82 872.757C4287.76 879.476 4280.38 890.313 4266.21 905.631L4120.25 1062.71C4109.44 1074.34 4101.23 1081.7 4096.4 1083.98C4091.63 1086.94 4086.34 1087.5 4080.69 1085.62C4073.17 1083.47 4066.4 1079.86 4060.89 1074.75L4052.13 1066.6L4046.09 1073.2L4232.25 1246.11L4309.26 1204.95L4301.93 1198.14C4280.43 1206 4262.65 1209.85 4248.6 1210.39C4237.32 1210.79 4228.12 1208.98 4220.26 1205.08C4212.33 1201.12 4201.49 1193.1 4187.99 1180.53L4147.13 1142.66C4140.21 1136.21 4136.55 1131.44 4135.74 1127.95C4134.2 1124.45 4134.06 1120.95 4135.74 1117.72C4136.68 1114.5 4142.37 1107.67 4152.18 1097.05L4226.3 1017.2L4279.49 1066.68C4289.71 1076.16 4296.05 1084 4298.74 1091.32C4301.49 1097.9 4301.7 1104.22 4299.81 1110.6C4298.6 1115.58 4292.94 1124.59 4283.94 1137.96L4290.45 1144.08L4368.67 1059.87L4362.16 1053.78C4348.52 1066.95 4336.4 1073.41 4325.18 1073.07C4316.72 1072.73 4305.59 1066.4 4291.74 1053.57L4238.51 1004.13L4327.21 908.654L4393.52 970.261C4405.21 981.078 4412.86 989.596 4415.95 995.845C4419.78 1004.11 4420.71 1011.86 4419.23 1019.31C4417.75 1027.44 4412.2 1038.51 4402.92 1053.7L4409.83 1060.08L4456.72 1004.52L4270.52 831.556ZM1080.59 900.8L890.636 1092.14L943.269 1149.26L949.913 1142.61C940.037 1131.39 933.987 1120.5 931.837 1109.95C930.09 1099.74 931.112 1090.26 934.943 1082.13C937.764 1075.81 944.402 1067.71 955.22 1056.76L983.219 1028.54L1161.87 1205.81C1174.97 1218.78 1182.03 1228.62 1183.44 1234.94C1185.26 1245.15 1181.09 1254.96 1171.28 1264.83L1162.82 1273.37L1169.2 1279.59L1268.05 1180.1L1261.66 1173.8L1253.59 1181.91C1244.52 1191.05 1235.38 1195.35 1226.24 1194.68C1219.52 1194.35 1209.35 1186.95 1194.83 1172.64L1016.23 995.323L1048.8 962.489C1058.61 952.613 1067.77 946.242 1076.84 943.42C1085.64 940.935 1095.49 940.867 1105.7 944.024C1112.02 946.107 1120.51 950.994 1131.46 959.728L1138.1 952.998L1080.59 900.8ZM4616.58 1182.39L4551.61 1224.93L4557.09 1232.56C4569.79 1224.7 4581.5 1220.54 4592.25 1220.14C4602.59 1219.99 4611.78 1222.56 4619.17 1227.73C4624.95 1231.49 4631.87 1239.37 4640.87 1251.93L4664.21 1284.16L4460.02 1431.32C4445.1 1442.14 4434.2 1447.44 4427.75 1447.84C4417.4 1447.99 4408.35 1442.22 4400.22 1430.93L4393.23 1421.22L4385.98 1426.49L4468 1540.21L4475.29 1534.99L4468.56 1525.71C4461.03 1515.23 4458.27 1505.57 4460.49 1496.64C4461.9 1490.12 4470.77 1481.18 4487.37 1469.28L4691.56 1322.12L4718.57 1359.62C4726.7 1370.9 4731.53 1380.99 4732.81 1390.46C4733.81 1399.53 4732.27 1409.27 4727.5 1418.81C4724.41 1424.72 4718.15 1432.25 4707.74 1441.59L4713.3 1449.27L4774.18 1401.08L4616.58 1182.39ZM844.977 1204.52C827.374 1205.6 811.116 1211.41 796.873 1221.22C783.032 1231.3 765.495 1250.47 744.195 1278.68L672.018 1374.42L679.223 1379.81L686.686 1369.85C694.144 1359.97 702.658 1354.46 711.795 1353.93C718.85 1353.66 730.294 1359.18 746.955 1371.74L917.41 1500.14C932.46 1511.56 941.112 1519.9 942.993 1525.68C946.554 1535.82 944.145 1546.47 935.745 1557.56L928.282 1567.52L935.4 1572.92L1020.39 1460.1L1013.27 1454.7L1005.51 1465.06C998.048 1475 989.836 1480.05 980.699 1480.59C973.644 1480.93 962.224 1475.42 945.495 1462.86L868.832 1405.05C870.378 1403.03 872.272 1401.37 873.75 1399.35C875.228 1397.4 876.424 1395.79 877.633 1394.18C880.656 1390.21 884.559 1385.1 889.195 1378.04L1079.71 1381.49L1132.69 1311.13L1125.57 1305.78C1113.21 1318.88 1100.97 1327.64 1088.47 1332.61C1075.97 1336.84 1056.36 1338.96 1029.62 1338.09L913.098 1335.59C924.789 1310.19 929.041 1287.2 924.875 1267.85C921.046 1248.17 910.618 1232.25 894.761 1220.22C879.644 1208.87 862.984 1203.78 844.977 1204.52ZM825.347 1251.07C838.42 1252.08 851.074 1257.1 863.569 1266.52C880.299 1279.08 889.391 1295.95 890.533 1316.78C892.415 1337.47 883.484 1359.97 864.605 1385.03C863.73 1386.24 862.493 1387.78 861.283 1389.39C859.804 1391.34 858.352 1393.38 856.537 1395.73L746.87 1313.16C754.059 1298.64 760.401 1287.83 766.112 1280.24C778.675 1263.57 794.005 1253.97 812.145 1251.42C816.597 1250.88 820.989 1250.74 825.347 1251.07ZM4814.6 1463.94L4806.66 1468.04L4812.31 1479.12C4818.02 1490.14 4819.21 1500.12 4815.72 1508.59C4812.9 1515.11 4802.99 1522.99 4784.44 1532.53L4594.49 1629.86C4577.69 1638.46 4566.41 1642.64 4560.36 1641.77C4549.68 1640.56 4541.14 1633.79 4534.82 1621.36L4529.13 1610.32L4521.19 1614.38L4585.6 1740.05L4593.54 1736.04L4587.71 1724.47C4582 1713.46 4581.05 1703.86 4584.48 1695.4C4587.3 1688.95 4597.23 1680.99 4615.84 1671.45L4701.26 1627.66C4702.4 1629.88 4703.05 1632.35 4704.2 1634.57C4705.34 1636.78 4706.3 1638.56 4707.17 1640.3C4709.46 1644.74 4712.41 1650.52 4716.71 1657.78L4630.55 1827.76L4670.67 1906.11L4678.66 1902.01C4672.27 1885.14 4669.67 1870.29 4670.67 1856.92C4672.29 1843.75 4679 1825.24 4691.43 1801.53L4744.45 1697.81C4762.25 1719.38 4781.06 1733.23 4800.27 1737.93C4819.62 1743.11 4838.56 1740.66 4856.23 1731.59C4873.03 1722.93 4884.93 1710.16 4892.12 1693.63C4898.84 1677.3 4900.66 1660.2 4898.04 1643.06C4895.01 1626.2 4885.38 1602.07 4869.26 1570.63L4814.6 1463.94ZM4837.16 1558.07C4847.04 1570.84 4854.09 1581.26 4858.39 1589.66C4867.93 1608.27 4869.9 1626.2 4864.25 1643.67C4858.41 1660.6 4846.76 1673.82 4828.14 1683.36C4809.6 1692.9 4790.45 1693.8 4771.24 1685.74C4751.82 1678.35 4735.4 1660.51 4721.15 1632.63C4720.48 1631.29 4719.52 1629.57 4718.65 1627.75C4717.51 1625.54 4716.35 1623.3 4714.94 1620.68L4837.16 1558.07ZM548.385 1579.9L544.416 1587.41L731.352 1815.98C747.88 1835.87 757.157 1851.39 760.517 1862.14C762.195 1867.52 760.693 1876.85 756.461 1890.36L764.399 1894.46L812.588 1802.43L804.65 1798.25C796.386 1811.89 789.346 1819.96 783.769 1822.11C777.924 1824.66 773.205 1825.03 768.368 1822.54C763.06 1819.79 756.053 1812.69 747.185 1801.88L711.463 1758.47L770.784 1645.23L821.174 1649.71C837.836 1651.12 849.593 1653.35 855.774 1656.57C860.611 1659.13 863.423 1663.44 864.834 1669.21C865.841 1674.79 863.915 1683.84 858.406 1695.53L866.301 1699.72L926.527 1584.7L918.588 1580.51C911.467 1592 903.547 1599.58 894.342 1603.21C884.936 1607.24 868.469 1607.65 844.686 1605.84L548.385 1579.9ZM607.707 1630.64L751.414 1643.54L699.299 1743.11L607.707 1630.64ZM525.907 1785.87C516.904 1785.66 508.066 1787.03 499.332 1789.92C481.662 1796.17 467.329 1806.22 455.369 1819.86C443.947 1833.7 433.09 1854.61 423.013 1882.16L381.209 1995.58L389.622 1998.69L393.893 1987C398.193 1975.37 404.721 1967.7 413.523 1964C420.174 1961.72 432.56 1964.15 452.178 1971.34L652.445 2045.02C670.182 2051.54 680.876 2057.05 684.371 2062.02C690.686 2070.76 691.426 2081.65 686.656 2094.68L682.342 2106.37L690.755 2109.48L739.506 1976.9L731.137 1973.8L726.822 1985.44C722.522 1997.13 716.008 2004.78 707.408 2008.01C700.69 2010.29 688.199 2008.34 668.579 2001.15L578.024 1967.84C584.003 1958.9 588.833 1950.03 593.469 1941.7C597.5 1933.63 600.852 1925.81 603.607 1918.36C614.76 1888.06 615.634 1861.31 605.893 1838.67C596.083 1816.5 578.627 1800.53 553.433 1791.26C544.094 1787.83 534.91 1786.07 525.907 1785.87ZM4984.03 1808.21L4975.58 1811.02L4979.33 1822.41C4983.63 1835.17 4983.91 1845.52 4979.54 1852.78C4976.24 1858.56 4964.54 1864.51 4944.72 1871.16L4741.44 1939.02C4726.32 1944.06 4715.62 1946.54 4710.24 1946.27C4704.6 1946.53 4699.72 1944.53 4695.62 1940.1C4690.11 1934.59 4685.85 1928.19 4683.49 1921.07L4679.74 1909.81L4671.2 1912.62L4751.7 2153.69L4838.98 2154.51L4835.83 2145.02C4813.19 2141.59 4795.72 2136.41 4783.15 2130.09C4773.08 2125.05 4765.8 2119.08 4760.76 2111.89C4755.79 2104.63 4750.08 2092.34 4744.24 2074.87L4726.64 2022.07C4723.68 2013.13 4722.68 2007.14 4723.62 2003.64C4723.95 1999.88 4725.58 1996.73 4728.54 1994.71C4730.89 1992.3 4739.2 1989.01 4752.91 1984.45L4856.24 1949.98L4879.23 2018.83C4883.6 2032.07 4885.35 2042.02 4884.28 2049.68C4883.47 2056.8 4880.66 2062.45 4875.95 2067.15C4872.46 2070.91 4863.17 2076.15 4848.86 2083.55L4851.75 2092L4960.73 2055.68L4957.92 2047.22C4939.65 2052.19 4925.9 2052.04 4916.16 2046.4C4908.9 2041.97 4902.21 2031.16 4896.23 2013.22L4873.23 1944.32L4996.88 1903.08L5025.48 1988.93C5030.52 2004.05 5033.19 2015.23 5032.86 2022.15C5032.25 2031.29 5029.44 2038.48 5024.53 2044.32C5019.36 2050.77 5009.18 2057.8 4993.73 2066.67L4996.75 2075.6L5064.52 2049.33L4984.03 1808.21ZM498.517 1839.97C512.223 1838.62 525.413 1840.3 538.984 1845.27C558.603 1852.46 572.368 1863.96 580.228 1880.09C588.224 1895.74 589.352 1911.52 583.507 1927.37C581.76 1932.01 579.421 1936.99 576.733 1942.9C573.374 1949.09 569.385 1955.62 565.085 1963.01L436.693 1915.77C438.372 1902.6 440.621 1892.29 443.51 1884.36C448.146 1871.73 455.028 1861.6 464.434 1853.34C473.638 1845.62 485.416 1840.97 498.517 1839.97ZM356.191 2086.61L302.306 2334.98L311.107 2336.88L313.61 2325.19C316.5 2312.08 321.445 2303.03 328.97 2299C334.748 2295.71 347.871 2296.51 368.229 2300.94L577.773 2346.32C593.293 2349.68 603.797 2353.01 608.232 2356.03C613.271 2358.65 616.403 2362.89 617.68 2368.8C619.63 2376.33 619.96 2384.02 618.413 2391.28L615.868 2402.97L624.626 2404.87L678.512 2156.45L603.789 2111.24L601.719 2120.99C619.456 2135.5 631.789 2148.85 639.382 2160.68C645.496 2170.15 648.676 2178.97 649.348 2187.77C649.952 2196.58 648.541 2210.02 644.645 2228.03L632.867 2282.43C630.853 2291.7 628.628 2297.29 626.008 2299.77C623.79 2302.86 620.854 2304.83 617.293 2305.04C614.068 2305.91 605.215 2304.5 591.106 2301.41L484.587 2278.29L500.032 2207.32C502.921 2193.68 506.584 2184.29 511.422 2178.24C515.722 2172.6 521.02 2169.18 527.47 2167.5C532.375 2166.02 543.036 2166.29 559.093 2167.23L560.992 2158.47L448.737 2134.1L446.84 2142.81C465.048 2147.85 476.819 2155.01 482.259 2164.82C486.29 2172.27 486.553 2185.08 482.524 2203.56L467.122 2274.53L339.722 2246.92L358.964 2158.43C362.323 2142.84 365.728 2131.85 369.491 2126.08C374.731 2118.55 380.877 2113.79 387.999 2111.23C395.792 2108.34 408.159 2107.49 425.965 2107.83L427.95 2098.55L356.191 2086.61ZM4776.03 2194.04L4767.23 2195.5L4784.18 2298.01L4793.03 2296.54C4791.41 2280.69 4792.18 2270.03 4795.4 2264.92C4798.49 2259.41 4801.95 2256.28 4807.39 2255.34C4813.24 2254.4 4823.05 2255.85 4836.69 2259.14L4891.31 2272.21L4912.14 2398.4L4869.22 2425.15C4855.04 2434.02 4844.39 2439.33 4837.47 2440.47C4832.09 2441.34 4827.22 2439.66 4822.58 2435.89C4818.42 2432 4814.55 2423.61 4811.93 2410.92L4803.12 2412.38L4824.26 2540.43L4833.07 2539.05C4831.85 2525.61 4833.63 2514.7 4838.8 2506.3C4843.84 2497.36 4856.79 2487.23 4876.81 2474.33L5129.11 2316.65L5127.68 2308.32L4840.87 2238.22C4815.68 2232.3 4798.96 2225.51 4789.75 2218.93C4785.18 2215.71 4780.8 2207.34 4776.03 2194.04ZM4910.33 2277.21L5051.15 2311.86L4928.62 2388.13L4910.33 2277.21ZM453.091 2424.28C418.826 2422.34 388.579 2428.58 361.369 2442.49C334.696 2456.94 314.581 2476.23 302.22 2501.42C289.388 2526.08 281.808 2563.5 279.053 2612.21L271.46 2746.26L280.391 2746.78L281.08 2734.35C281.819 2721.92 285.793 2712.75 293.117 2707.17C298.828 2703.01 311.846 2701.24 332.202 2702.38L545.239 2714.46C563.648 2715.47 575.395 2718.16 580.702 2721.93C589.302 2727.91 593.2 2738.13 592.394 2752.04L591.746 2764.38L600.676 2764.94L609.002 2617.91C612.63 2554.35 597.904 2505.73 565.384 2472.48C536.225 2442.91 498.779 2426.84 453.091 2424.28ZM451.928 2479.98C497.077 2482.53 532.139 2497 557.064 2523.34C581.991 2549.14 593.617 2581.18 591.535 2618.47C590.728 2632.31 587.299 2649.59 581.655 2669.68L302.092 2653.89C298.666 2635.21 297.145 2618.18 297.951 2603.8C300.169 2565.03 314.88 2534.02 342.559 2511.18C370.307 2487.86 406.71 2477.43 451.928 2479.98ZM5073.22 2573.81C5059.24 2574.08 5046.86 2577.26 5035.51 2583.91C5024.69 2590.09 5014.41 2599.17 5005.14 2611.26C4995.86 2623.36 4983.79 2643.99 4968.34 2672.61C4952.88 2701.17 4943.21 2718.23 4938.31 2724.81C4931.53 2734.35 4923.63 2741.47 4915.23 2746.04C4907.37 2750.68 4898.98 2752.83 4890.98 2752.9C4876.07 2753.16 4863.57 2747.38 4852.41 2736.16C4841.8 2724.4 4836.1 2708.52 4835.76 2688.1C4835.43 2670.7 4839.19 2654.25 4846.37 2639.74C4854.1 2624.69 4863.91 2614.09 4875.19 2606.43C4887.02 2599.31 4904.34 2593.07 4928.13 2588.7L4928.01 2579.68L4815.15 2581.58L4815.27 2590.51C4822.73 2591.38 4828.25 2593.27 4830.8 2595.69C4833.29 2597.7 4834.36 2601.13 4834.43 2605.09C4834.48 2609.12 4832.16 2619.04 4826.92 2635.03C4822.22 2651.02 4819.38 2661.6 4818.51 2666.57C4817.16 2675.03 4816.75 2683.93 4816.95 2693.4C4817.42 2724.24 4826.75 2749 4844.95 2768.08C4863.7 2787.23 4885.28 2796.27 4910.14 2795.87C4923.58 2795.66 4935.94 2792.45 4947.76 2786.33C4959.59 2779.68 4969.96 2771.01 4978.7 2759.45C4987.5 2748.37 4999.56 2726.73 5015.41 2695.69C5035.23 2657.53 5051.26 2633.44 5063.09 2623.3C5071.42 2616.18 5080.28 2612.52 5090.22 2612.38C5103.66 2612.18 5115.2 2617.44 5125.81 2628.26C5136.43 2639.01 5141.59 2653.3 5141.86 2669.76C5142.13 2684.68 5138.4 2699.68 5131.21 2713.73C5123.95 2727.77 5113.67 2738.38 5100.84 2746.04C5088.07 2754.24 5070.73 2759.49 5048.89 2762.78L5049.01 2771.75L5162.91 2769.9L5162.79 2760.97C5155.33 2759.62 5150.28 2757.2 5147.73 2754.71C5145.25 2752.29 5143.7 2748.86 5143.63 2744.36C5143.57 2740.86 5145.46 2734.33 5149.28 2725.33C5157.41 2705.31 5161.55 2686.86 5161.28 2668.99C5160.81 2641.1 5152.01 2617.82 5134.27 2600.22C5117.07 2582.08 5096.53 2573.48 5073.22 2573.81ZM5146.86 2870.07L5145.18 2882.41C5143.5 2894.7 5139.34 2903.21 5132.15 2907.78C5125.03 2912.28 5111.79 2913.55 5091.64 2910.8L4963.98 2893.37C4924.54 2888.06 4897.62 2886.85 4882.57 2890.35C4860.4 2894.85 4842.32 2906 4827.48 2922.53C4812.69 2939.13 4802.59 2965.32 4797.75 3000.79C4793.25 3033.85 4796.21 3060.33 4806.42 3081.3C4817.17 3101.85 4830.7 3116.71 4848.1 3125.65C4864.96 3134.45 4890.09 3141.36 4922.6 3145.79L5055.22 3163.83C5073.43 3166.31 5084.57 3169.31 5089 3173.41C5098.95 3181.8 5102.98 3192.44 5101.3 3205.2L5099.62 3217.54L5108.5 3218.75L5124.08 3103.95L5115.23 3102.74L5113.55 3115.03C5111.87 3127.33 5107.17 3136.25 5099.45 3141.22C5093.4 3144.92 5080.28 3145.66 5060.06 3142.9L4927.95 3124.96C4892.95 3120.19 4868.71 3113.87 4855.34 3105.54C4841.3 3097.61 4831.08 3084.18 4824.02 3066.11C4816.9 3048.1 4815.09 3028.28 4817.98 3007.05C4820.27 2990.32 4825.15 2976.41 4832.61 2965.93C4840.07 2955.38 4848.69 2947.53 4858.84 2942.89C4869.12 2937.72 4881.94 2935.43 4899.01 2935.3C4915.6 2935.04 4930.05 2935.97 4942.88 2937.72L5085.34 2957.09C5103.55 2959.57 5115.08 2963.1 5120.46 2967.87C5128.05 2974.93 5131.23 2984.88 5129.34 2998.72L5127.66 3011.02L5136.51 3012.22L5155.75 2871.28L5146.86 2870.07ZM529.695 2922.7L531.247 2932.5C553.016 2939.62 569.419 2947.62 580.773 2955.88C589.91 2962.53 596.079 2969.61 599.842 2977.54C603.604 2985.53 607.264 2998.57 610.153 3016.71L618.868 3071.72C620.346 3081.06 620.293 3087.11 618.838 3090.4C617.899 3094.03 615.789 3096.9 612.497 3098.38C609.808 3100.33 601.027 3102.29 586.783 3104.51L479.187 3121.63L467.84 3049.89C465.623 3036.12 465.582 3026.11 467.929 3018.66C469.879 3011.8 473.574 3006.68 479.016 3002.78C483.047 2999.62 493.035 2995.99 508.353 2991.09L506.931 2982.24L393.467 3000.23L394.89 3009.12C413.703 3007.18 427.14 3009.53 435.875 3016.72C442.258 3022.22 447.156 3034.02 450.112 3052.7L461.545 3124.4L332.808 3144.89L318.614 3055.46C316.128 3039.74 315.349 3028.33 316.759 3021.55C318.909 3012.61 322.845 3005.94 328.623 3000.97C334.804 2995.46 346.043 2990.15 362.704 2983.97L361.238 2974.65L290.008 2989.49L329.916 3240.5L338.717 3239.16L336.817 3227.34C334.735 3214.1 336.14 3203.74 341.649 3197.35C345.882 3192.11 358.341 3188.18 378.968 3184.89L590.667 3151.28C606.389 3148.79 617.419 3148.06 622.593 3149.21C628.237 3149.81 632.718 3152.62 636.01 3157.66C640.579 3163.98 643.689 3171.02 644.898 3178.41L646.753 3190.19L655.554 3188.77L615.735 2937.77L529.695 2922.7ZM4777.24 3188.81L4735.48 3323.71L4744.02 3326.39L4747.86 3314.01C4751.55 3302.12 4757.54 3294.6 4765.94 3290.97C4772.52 3288.28 4785.07 3289.64 4805.02 3295.76L4896.75 3324.19C4896.01 3326.54 4894.79 3328.76 4894.11 3331.18C4893.37 3333.53 4892.78 3335.4 4892.17 3337.35C4890.69 3342.05 4888.79 3348.24 4886.78 3356.5L4706.4 3417.85L4680.39 3501.94L4688.93 3504.57C4696.12 3488.04 4704.67 3475.6 4714.68 3466.73C4725.1 3458.47 4742.8 3449.89 4768.27 3441.62L4878.67 3404.48C4876.32 3432.36 4880.16 3455.37 4890.57 3472.17C4900.85 3489.37 4916.04 3500.85 4935.05 3506.77C4953.12 3512.34 4970.52 3511.48 4987.26 3504.69C5003.45 3497.71 5016.74 3486.75 5026.82 3472.64C5036.43 3458.46 5046.43 3434.49 5056.84 3400.77L5092.31 3286.22L5083.72 3283.59L5080.1 3295.5C5076.4 3307.32 5070.29 3315.38 5061.89 3319.01C5055.31 3321.63 5042.67 3320.36 5022.72 3314.18L4818.87 3251.15C4800.8 3245.57 4789.86 3240.58 4786.17 3235.75C4779.38 3227.41 4778.01 3216.61 4782.11 3203.3L4785.82 3191.39L4777.24 3188.81ZM658.4 3209.26L649.944 3212.02L653.524 3222.89C655.942 3230.41 656.384 3238.16 654.905 3246.49C653.627 3252.13 651.247 3256.08 648.089 3259.17C643.99 3262.6 633.414 3267.1 617.759 3272.2L414.948 3338.47C399.831 3343.44 389.131 3345.84 383.756 3345.5C378.112 3345.77 373.205 3343.72 369.174 3339.29C363.732 3333.78 359.494 3327.23 357.008 3319.7L353.47 3308.83L344.971 3311.59L388.804 3445.89L397.347 3443.13L393.636 3431.79C391.286 3424.66 390.862 3416.95 392.473 3409.09C393.144 3403.18 395.575 3399.18 399.203 3395.89C403.302 3392.47 413.388 3388.19 429.447 3382.95L519.829 3353.44L567.155 3498.57L476.858 3528.08C461.741 3533.05 451.018 3535.45 445.711 3535.11C439.865 3534.91 435.025 3532.82 431.128 3528.86C425.618 3523.35 421.443 3516.84 419.091 3509.79L415.381 3498.44L406.882 3501.2L450.756 3635.5L459.256 3632.74L455.588 3621.4C453.238 3614.28 452.817 3606.52 454.295 3598.19C455.102 3592.74 457.441 3588.8 461.069 3585.5C465.234 3582.08 475.34 3577.8 491.398 3572.56L694.21 3506.29C713.156 3500.11 725.614 3498.1 731.528 3500.38C741.001 3503.54 747.855 3511.82 752.02 3524.59L755.687 3535.93L764.23 3533.08L720.353 3398.87L711.81 3401.63L715.607 3412.98C717.893 3420.03 718.299 3427.77 716.685 3435.63C715.542 3441.74 713.155 3445.7 709.998 3448.79C705.899 3452.21 695.299 3456.71 679.712 3461.81L584.238 3493.01L536.824 3347.88L632.298 3316.68C651.245 3310.5 663.638 3308.49 669.617 3310.77C679.157 3314.4 685.9 3322.21 690.066 3334.98L693.819 3346.32L702.275 3343.52L658.4 3209.26ZM4911.54 3328.72L5042.69 3369.27C5040.81 3385.4 5038.57 3397.69 5035.75 3406.76C5029.56 3426.72 5018.42 3440.94 5002.22 3449.47C4986.23 3457.54 4968.64 3458.81 4948.68 3452.62C4928.73 3446.51 4914.4 3433.74 4906.28 3414.53C4897.54 3395.72 4898.3 3371.45 4907.57 3341.49C4907.97 3340.08 4908.56 3338.19 4909.16 3336.31C4909.9 3333.89 4910.66 3331.54 4911.54 3328.72ZM4645.48 3569.93L4583.79 3697.07L4591.85 3700.95L4596.64 3691.16C4602.56 3679.06 4609.99 3671.57 4618.86 3669.28C4625.31 3667.4 4637.54 3670.57 4655.88 3679.51L4731.55 3716.18L4808.47 3841.42C4818.01 3857.07 4824.79 3869.25 4828.01 3878.52C4831.44 3887.39 4833.14 3896.53 4833.28 3905.4C4832.94 3914.07 4831.85 3920.78 4830.17 3924.34L4827.37 3930.21L4835.35 3934.09L4885.52 3830.68L4877.5 3826.8C4873.8 3834.39 4870.09 3839.77 4866.32 3842.93C4862.56 3846.09 4858.4 3847.97 4854.37 3848.24C4850.14 3848.91 4845.89 3848.5 4841.86 3846.56C4835.21 3843.33 4827.07 3833.87 4817.53 3818.21L4754.46 3715.75L4879.74 3700.22C4897.95 3698 4909.53 3698.07 4914.9 3700.69C4921.15 3703.72 4924.56 3709.2 4924.82 3716.53C4925.16 3723.85 4923.91 3731.06 4920.68 3737.71L4917.45 3744.44L4925.43 3748.36L4986.91 3621.74L4978.88 3617.77C4976.26 3623.15 4973.2 3627.17 4970.51 3629.25C4960.37 3637.58 4952.44 3642.55 4947.13 3644.44C4941.82 3646.25 4929.79 3648.22 4910.24 3650.91L4745.74 3671.14L4676.33 3637.45C4659.8 3629.38 4649.9 3622.42 4646.47 3616.91C4641.5 3607.84 4642.24 3597.16 4648.28 3584.6L4653.55 3573.81L4645.48 3569.93ZM806.434 3613.67L798.538 3617.77L803.716 3627.95C809.628 3639.44 810.809 3649.47 807.383 3657.94C804.965 3664.19 794.849 3671.62 776.708 3680.89L552.671 3795.74L531.575 3754.62C525.259 3742.19 522.035 3731.57 522.17 3721.96C522.505 3712.89 525.547 3703.47 531.661 3694.74C535.625 3689.36 542.898 3682.86 554.656 3675.2L550.255 3666.74L482.822 3705.22L605.822 3945.14L676.447 3912.82L672.133 3904.45C658.427 3910.36 646.232 3912.69 635.549 3911.48C625.269 3910.01 616.568 3906.1 610.051 3899.92C604.878 3895.29 599.245 3886.49 592.19 3872.79L574.071 3837.37L797.979 3722.57C814.372 3714.17 825.956 3710.49 832.407 3711.09C842.619 3712.57 850.727 3719.54 857.042 3731.97L862.478 3742.58L870.502 3738.49L806.434 3613.67ZM2346.23 4789.66L2260.08 4813.3L2262.15 4821.24C2273.77 4818.35 2282.58 4817.4 2288.42 4818.48C2292.32 4819.15 2296.08 4820.87 2298.56 4823.83C2301.05 4826.78 2302.29 4831.08 2302.36 4836.12C2302.56 4843.24 2300.79 4858.58 2296.49 4882.03L2264.52 5056.97C2260.96 5076.52 2257.79 5088.07 2255.64 5091.7C2252.95 5095.26 2249.47 5097.68 2244.63 5099.29C2239.33 5100.83 2229.38 5100.06 2214.13 5097.78L2212.49 5106.58L2334.67 5128.93L2336.27 5120.13C2321.69 5116.97 2312.1 5114.14 2307.67 5110.85C2303.23 5107.49 2300.92 5103.54 2300.25 5098.9C2299.71 5093.73 2300.79 5082.29 2304.08 5064.22L2354 4791.04L2346.23 4789.66ZM2990.55 4805.23C2984.14 4804.64 2977.54 4804.74 2970.75 4805.58C2939.24 4809.47 2915.27 4825.97 2898.87 4855.54C2885.44 4880.26 2880.13 4906.45 2883.69 4935C2887.32 4964.09 2898.6 4986.71 2917.08 5002.44C2935.56 5018.16 2956.39 5024.63 2979.03 5021.81C2999.26 5019.32 3020.96 5008.65 3044.13 4989.23C3041.18 5018.12 3032.52 5045.26 3018.68 5070.99C3004.84 5096.72 2989.63 5115.13 2973.04 5126.68C2956.44 5138.24 2937.32 5145.62 2916.69 5148.64L2917.81 5157.53L2931.62 5155.85C2962.19 5152.09 2989.25 5140.21 3012.77 5119.78C3041.73 5095.19 3063.62 5065.89 3077.53 5032.63C3091.37 4998.91 3096.02 4963.74 3091.59 4927.8C3086.55 4887.35 3070.46 4854.76 3043.92 4830.04C3027.44 4815.17 3009.8 4806.99 2990.55 4805.23ZM2470.05 4815.37L2432.69 4890.7L2439.42 4894.19C2449.09 4879.01 2460.82 4868.52 2474.79 4862.14C2483.06 4858.31 2496.1 4857.29 2514.44 4858.77L2604.57 4865.89L2483.21 5153.78L2510.43 5155.93L2645.08 4838.68L2645.81 4829.27L2470.05 4815.37ZM2759.23 4820.85C2731.89 4821.45 2709.71 4829.89 2693.65 4845.61C2677.6 4861.4 2669.58 4879.94 2670.05 4901.31C2670.32 4915.22 2674.62 4928.54 2682.35 4941.3C2690.08 4954.07 2707.34 4970.59 2734.08 4991.35C2710.16 5009.22 2693.65 5025.56 2684.51 5040.14C2674.9 5054.25 2670.2 5068.75 2670.53 5083.67C2670.93 5102.08 2678.27 5118.82 2692.58 5134.41C2710.38 5153.35 2735.39 5162.73 2766.7 5162.06C2795.05 5161.39 2818.15 5152.45 2835.68 5135.66C2852.68 5118.93 2861.2 5099.37 2860.66 5075.99C2860.26 5057.65 2853.97 5040.39 2841.2 5024.26C2831.46 5012.04 2812.22 4995.11 2783.39 4973.88C2810.33 4955.87 2828.44 4940.56 2837.1 4927.45C2845.23 4914.35 2849.45 4901.87 2849.18 4889.45C2848.78 4871.04 2840.46 4854.82 2823.73 4840.78C2807.07 4826.74 2785.5 4820.31 2759.23 4820.85ZM2967.82 4821.97C2980.19 4820.43 2991.62 4824 3002.16 4832.2C3013.25 4840.86 3022.29 4853.79 3029.95 4870.85C3037.61 4888.45 3042.19 4904.85 3044.14 4920.64C3045.62 4933 3046.25 4949.93 3045.91 4971.03C3038.79 4978.42 3030.51 4984.4 3021.11 4989.1C3011.63 4993.74 3003.04 4996.79 2995.65 4997.73C2980.33 4999.61 2966.67 4994.33 2954.58 4981.77C2937.92 4964.37 2927.79 4939.02 2923.56 4905.02C2920.47 4879.89 2923.47 4860 2932.75 4845.82C2941.49 4831.72 2953.51 4823.72 2967.82 4821.97ZM2759.96 4834.27C2776.36 4833.86 2789.92 4838.57 2799.53 4847.77C2809.2 4857.51 2814.44 4870.81 2814.84 4887.68C2815.11 4900.58 2812.92 4912.07 2807.68 4922.15C2802.91 4932.7 2790.8 4946.88 2771.79 4964.69L2730.84 4932.29C2722.71 4924.96 2716.61 4917.19 2711.9 4908.86C2707.27 4900.53 2705.12 4892.13 2704.92 4883.66C2704.65 4870.76 2709.37 4859.21 2719.58 4849.54C2729.8 4839.86 2743.57 4834.6 2759.96 4834.27ZM2745.77 5000.49C2781.11 5027.1 2804.98 5048.94 2816.74 5066.07C2823.39 5074.87 2826.61 5085.24 2826.88 5096.66C2827.21 5111.04 2821.99 5123.12 2811.78 5132.73C2801.57 5142.94 2787.76 5148.16 2769.89 5148.56C2752.49 5148.96 2737.92 5142.82 2726.23 5130.65C2714.54 5118.49 2708.23 5102.21 2707.76 5081.38C2707.43 5065.93 2710.55 5051.47 2716.74 5037.9C2722.92 5024.39 2732.6 5011.71 2745.77 5000.49Z" fill="white" stroke="white" stroke-width="0.52924"/>
<path d="M3721.6 1711.46C3721.6 1711.46 3669.46 1809.13 3582.12 1788.3C3582.12 1788.3 3700.81 1840.45 3763.36 1720.52L3721.6 1711.46ZM2716.64 2438.19L2699 2507.65L2627.42 2512.35L2688.04 2550.66L2670.35 2620.12L2725.53 2574.3L2786.14 2612.57L2759.65 2545.91L2814.83 2500.09L2743.17 2504.75L2716.64 2438.19ZM1669.8 2465.28C1669.8 2465.28 1672.97 2506.59 1714.76 2529.43C1714.76 2529.43 1695.87 2497.72 1708.03 2482.54H2000.71C2000.71 2482.54 2007.88 2522.33 1960.71 2571.71C1960.71 2571.71 2030.8 2527.38 2044.24 2466.57L1669.8 2465.28ZM3361.9 2479.17C3361.9 2479.17 3377.3 2524.88 3420.7 2554.24C3420.7 2554.24 3412.76 2519.3 3425.32 2499.75H3717.74C3717.74 2499.75 3713.31 2529.31 3664.33 2592.94C3664.33 2592.94 3737.16 2559.13 3751.13 2480.85L3361.9 2479.17ZM2527.15 2575.85L2509.42 2645.4L2437.84 2650.1L2498.5 2688.32L2480.77 2757.87L2535.95 2712.05L2596.61 2750.32L2570.07 2683.71L2625.25 2637.85L2553.68 2642.51L2527.15 2575.85ZM2914.17 2582.11L2896.48 2651.57L2824.91 2656.23L2885.53 2694.49L2867.88 2764.04L2923.02 2718.14L2983.63 2756.45L2957.14 2689.79L3012.32 2644.06L2940.71 2648.68L2914.17 2582.11ZM2327.82 2724.69L2310.09 2794.24L2238.51 2798.94L2299.13 2837.21L2281.44 2906.71L2336.62 2860.89L2397.23 2899.16L2370.7 2832.5L2425.92 2786.69L2354.31 2791.35L2327.82 2724.69ZM3122.1 2725.21L3104.33 2794.76L3032.8 2799.42L3093.41 2837.77L3075.73 2907.23L3130.9 2861.41L3191.56 2899.72L3165.03 2833.07L3220.17 2787.25L3148.55 2791.86L3122.1 2725.21ZM2128.49 2873.54L2110.71 2943.08L2039.18 2947.78L2099.84 2986.01L2082.11 3055.55L2137.29 3009.69L2197.95 3047.96L2171.41 2981.39L2226.55 2935.57L2154.94 2940.15L2128.49 2873.54ZM3321.55 2900.33L3303.95 2969.87L3232.33 2974.57L3292.99 3012.88L3275.26 3082.34L3330.4 3036.53L3391.1 3074.84L3364.52 3008.18L3419.7 2962.36L3348.09 2966.98L3321.55 2900.33ZM1918.79 3023.11L1901.06 3092.65L1829.48 3097.27L1890.14 3135.49L1872.41 3205.04L1927.59 3159.22L1988.2 3197.53L1961.72 3130.87L2016.85 3085.06L1945.24 3089.67L1918.79 3023.11ZM3529.51 3043.6L3511.82 3113.1L3440.21 3117.81L3500.87 3156.03L3483.14 3225.58L3538.31 3179.76L3598.97 3218.11L3572.44 3151.37L3627.58 3105.55L3555.96 3110.21L3529.51 3043.6ZM1698.64 3173.29L1680.91 3242.79L1609.33 3247.41L1670.03 3285.76L1652.26 3355.26L1707.44 3309.36L1768.09 3347.71L1741.56 3281.05L1796.74 3235.24L1725.17 3239.9L1698.64 3173.29ZM3737.38 3186.88L3719.69 3256.34L3648.16 3260.95L3708.73 3299.26L3691.09 3368.81L3746.23 3322.99L3806.84 3361.26L3780.39 3294.64L3835.49 3248.79L3763.91 3253.44L3737.38 3186.88ZM1480.4 3349.57L1462.75 3419.07L1391.09 3423.68L1451.8 3462.04L1434.11 3531.54L1489.28 3485.72L1549.94 3523.99L1523.41 3457.33L1578.5 3411.52L1506.93 3416.17L1480.4 3349.57ZM3958.42 3370.96L3940.69 3440.51L3869.16 3445.21L3929.82 3483.52L3912.08 3552.98L3967.22 3507.08L4027.92 3545.43L4001.35 3478.77L4056.52 3432.96L3984.91 3437.62L3958.42 3370.96ZM2208.12 3705.36C2157.18 3704.77 2167.83 3759.29 2167.83 3759.29C2175.62 3718.91 2216.06 3705.88 2216.06 3705.88C2213.25 3705.57 2210.63 3705.39 2208.12 3705.36ZM3202.86 3709.72C3187.21 3712.34 3179.43 3728.01 3179.43 3728.01C3195.09 3729.29 3202.86 3709.72 3202.86 3709.72Z" fill="white"/>
<path d="M2668.4 1780.38L2663.22 1981.14C2660.6 2022.86 2707.5 2033.27 2707.5 2033.27M2796.12 1647.42L2853.5 1595.28L2916.12 1605.7M1836.74 1803.83C1917.57 1793.42 1948.81 1720.39 1948.81 1720.39L2548.44 1582.25L2569.34 1605.7" stroke="white" stroke-width="1.32005"/>
<path d="M3363.34 3520.72C3313.83 3554.58 3289.03 3624.99 3283.79 3712.34C3278.55 3799.68 3283.94 3869.28 3300.79 3931.3C3321.62 4008.23 3376.38 4042.16 3376.38 4042.16M3551.07 3610.69C3575.79 3662.83 3541.93 3741.03 3541.93 3741.03M3548.45 3823.13C3579.69 3884.41 3548.45 3971.75 3548.45 3971.75M2333.5 3741.04H3109.11M1840.77 3849.23V4023.92M1905.94 3963.92H1941.15V3943.09M2109.32 3963.92H2137.94V3870.06M1762.57 3739.71H2121M1654.37 1715.29L1672.65 1767.43L1670.02 1710.05L1654.37 1715.29Z" stroke="white" stroke-width="0.79082"/>
</svg>
